<svg width="144" height="23" viewBox="0 0 144 23" fill="none" xmlns="http://www.w3.org/2000/svg">
<g id="Logotype">
<path d="M10.3395 22.2401C13.0395 22.2401 15.2595 20.8601 15.9495 18.7901V22.0001H19.9395V13.9001C19.9395 12.0701 18.4995 10.5101 16.5495 10.5101H10.8495V13.9001H14.8995C15.4095 13.9001 15.7395 14.2301 15.7395 14.7401C15.7395 16.6901 13.1595 18.5801 10.5495 18.5801C7.06953 18.5801 4.30953 15.8501 4.30953 11.5001C4.30953 7.15006 7.06953 4.63006 10.6395 4.63006C13.3395 4.63006 15.1995 6.10006 15.5295 8.35006H19.9995C19.7295 3.85006 15.9495 0.76006 10.6695 0.76006C5.11953 0.76006 0.0195312 4.33006 0.0195312 11.5001C0.0195312 18.6701 4.96953 22.2401 10.3395 22.2401Z" fill="#101828"/>
<path d="M21.6523 22.0001H25.8223V0.310059H21.6523V22.0001Z" fill="#101828"/>
<path d="M34.8174 22.2401C39.4674 22.2401 42.7974 18.9401 42.7974 14.4401C42.7974 9.94006 39.4674 6.64006 34.8174 6.64006C30.1674 6.64006 26.8374 9.94006 26.8374 14.4401C26.8374 18.9401 30.1674 22.2401 34.8174 22.2401ZM34.8174 18.6401C32.5674 18.6401 31.0374 16.9301 31.0374 14.4401C31.0374 11.9201 32.5674 10.2101 34.8174 10.2101C37.0674 10.2101 38.5974 11.9201 38.5974 14.4401C38.5974 16.9301 37.0674 18.6401 34.8174 18.6401Z" fill="#101828"/>
<path d="M52.1284 22.2401C56.5984 22.2401 59.2684 19.1501 59.2684 14.4401C59.2684 9.73006 56.5984 6.64006 52.1884 6.64006C50.2984 6.64006 48.8284 7.36006 47.9884 8.47006V0.310059H43.8184V22.0001H47.9884V20.3501C48.8284 21.5201 50.3884 22.2401 52.1284 22.2401ZM51.4684 18.6401C49.2184 18.6401 47.7484 16.9601 47.7484 14.4401C47.7484 11.8901 49.2184 10.2101 51.4684 10.2101C53.6584 10.2101 55.1584 11.8901 55.1584 14.4401C55.1584 16.9601 53.6584 18.6401 51.4684 18.6401Z" fill="#101828"/>
<path d="M66.2488 6.64006C62.1088 6.64006 59.6488 9.07006 59.4688 12.1001H63.1887C63.2487 10.8401 64.1787 9.70006 66.0088 9.70006C67.7188 9.70006 68.7088 10.5701 68.7088 11.8301C68.7088 12.4601 68.3188 12.9401 67.5688 12.9401H65.0188C61.7188 12.9401 59.4987 14.7401 59.4987 17.7101C59.4987 20.2901 61.5088 22.2401 64.4488 22.2401C66.5188 22.2401 68.1988 21.3101 68.7088 19.9001V22.0001H72.8488V12.2801C72.8488 8.86006 70.0588 6.64006 66.2488 6.64006ZM65.4988 19.2101C64.3288 19.2101 63.4888 18.5201 63.4888 17.5301C63.4888 16.3601 64.3887 15.5801 65.6488 15.5801H68.7088V15.7901C68.7088 17.7101 67.5388 19.2101 65.4988 19.2101Z" fill="#101828"/>
<path d="M74.4512 22.0001H78.6212V0.310059H74.4512V22.0001Z" fill="#101828"/>
<path d="M80.8363 22.0001H89.4163C93.8563 22.0001 96.9163 19.7201 96.9163 15.7301C96.9163 12.9701 95.2962 11.2901 93.3763 10.5401C94.6063 9.88006 95.8363 8.38006 95.8363 6.40006C95.8363 2.89006 92.9863 1.00006 89.1763 1.00006H80.8363V22.0001ZM85.2763 9.01006V4.57006H88.7563C90.7663 4.57006 91.6663 5.38006 91.6663 6.79006C91.6663 8.20006 90.7663 9.01006 88.8463 9.01006H85.2763ZM85.2763 18.1001V12.8201H89.0263C91.5163 12.8201 92.6263 13.7801 92.6263 15.4901C92.6263 17.2001 91.5163 18.1001 89.0263 18.1001H85.2763Z" fill="#101828"/>
<path d="M104.171 6.64006C100.031 6.64006 97.5706 9.07006 97.3906 12.1001H101.111C101.171 10.8401 102.101 9.70006 103.931 9.70006C105.641 9.70006 106.631 10.5701 106.631 11.8301C106.631 12.4601 106.241 12.9401 105.491 12.9401H102.941C99.6406 12.9401 97.4206 14.7401 97.4206 17.7101C97.4206 20.2901 99.4306 22.2401 102.371 22.2401C104.441 22.2401 106.121 21.3101 106.631 19.9001V22.0001H110.771V12.2801C110.771 8.86006 107.981 6.64006 104.171 6.64006ZM103.421 19.2101C102.251 19.2101 101.411 18.5201 101.411 17.5301C101.411 16.3601 102.311 15.5801 103.571 15.5801H106.631V15.7901C106.631 17.7101 105.461 19.2101 103.421 19.2101Z" fill="#101828"/>
<path d="M112.133 22.0001H116.333V13.7201C116.333 11.7701 117.623 10.3601 119.453 10.3601C121.193 10.3601 122.363 11.6801 122.363 13.5101V22.0001H126.563V12.5801C126.563 9.10006 124.343 6.64006 120.923 6.64006C118.853 6.64006 117.173 7.51006 116.333 8.98006V6.88006H112.133V22.0001Z" fill="#101828"/>
<path d="M138.533 22.0001H143.573L137.063 12.8201L143.093 6.88006H137.813L132.563 12.0401V0.310059H128.363V22.0001H132.563V17.2601L134.243 15.6101L138.533 22.0001Z" fill="#101828"/>
</g>
</svg>
