<svg width="115" height="23" viewBox="0 0 115 23" fill="none" xmlns="http://www.w3.org/2000/svg">
<g id="Logotype">
<path d="M0.380859 21.9093V18.4293H3.14086V4.38926H0.380859V0.909258H11.1809C12.4609 0.909258 13.5709 1.12926 14.5109 1.56926C15.4709 1.98926 16.2109 2.59926 16.7309 3.39926C17.2709 4.17926 17.5409 5.11926 17.5409 6.21926V6.51926C17.5409 7.47926 17.3609 8.26926 17.0009 8.88926C16.6409 9.48926 16.2109 9.95926 15.7109 10.2993C15.2309 10.6193 14.7709 10.8493 14.3309 10.9893V11.5293C14.7709 11.6493 15.2509 11.8793 15.7709 12.2193C16.2909 12.5393 16.7309 13.0093 17.0909 13.6293C17.4709 14.2493 17.6609 15.0593 17.6609 16.0593V16.3593C17.6609 17.5193 17.3909 18.5193 16.8509 19.3593C16.3109 20.1793 15.5609 20.8093 14.6009 21.2493C13.6609 21.6893 12.5609 21.9093 11.3009 21.9093H0.380859ZM7.10086 18.3093H10.8209C11.6809 18.3093 12.3709 18.0993 12.8909 17.6793C13.4309 17.2593 13.7009 16.6593 13.7009 15.8793V15.5793C13.7009 14.7993 13.4409 14.1993 12.9209 13.7793C12.4009 13.3593 11.7009 13.1493 10.8209 13.1493H7.10086V18.3093ZM7.10086 9.54926H10.7609C11.5809 9.54926 12.2509 9.33926 12.7709 8.91926C13.3109 8.49926 13.5809 7.91926 13.5809 7.17926V6.87926C13.5809 6.11926 13.3209 5.53926 12.8009 5.13926C12.2809 4.71926 11.6009 4.50926 10.7609 4.50926H7.10086V9.54926Z" fill="#101828"/>
<path d="M26.6027 22.3293C25.1227 22.3293 23.7927 22.0293 22.6127 21.4293C21.4327 20.8293 20.5027 19.9593 19.8227 18.8193C19.1427 17.6793 18.8027 16.3093 18.8027 14.7093V14.2293C18.8027 12.6293 19.1427 11.2593 19.8227 10.1193C20.5027 8.97926 21.4327 8.10926 22.6127 7.50926C23.7927 6.90926 25.1227 6.60926 26.6027 6.60926C28.0827 6.60926 29.4127 6.90926 30.5927 7.50926C31.7727 8.10926 32.7027 8.97926 33.3827 10.1193C34.0627 11.2593 34.4027 12.6293 34.4027 14.2293V14.7093C34.4027 16.3093 34.0627 17.6793 33.3827 18.8193C32.7027 19.9593 31.7727 20.8293 30.5927 21.4293C29.4127 22.0293 28.0827 22.3293 26.6027 22.3293ZM26.6027 18.9693C27.7627 18.9693 28.7227 18.5993 29.4827 17.8593C30.2427 17.0993 30.6227 16.0193 30.6227 14.6193V14.3193C30.6227 12.9193 30.2427 11.8493 29.4827 11.1093C28.7427 10.3493 27.7827 9.96926 26.6027 9.96926C25.4427 9.96926 24.4827 10.3493 23.7227 11.1093C22.9627 11.8493 22.5827 12.9193 22.5827 14.3193V14.6193C22.5827 16.0193 22.9627 17.0993 23.7227 17.8593C24.4827 18.5993 25.4427 18.9693 26.6027 18.9693Z" fill="#101828"/>
<path d="M36.3919 21.9093V0.909258H40.1719V21.9093H36.3919Z" fill="#101828"/>
<path d="M48.5606 21.9093C47.5806 21.9093 46.7806 21.6093 46.1606 21.0093C45.5606 20.3893 45.2606 19.5693 45.2606 18.5493V10.1493H41.5406V7.02926H45.2606V2.40926H49.0406V7.02926H53.1206V10.1493H49.0406V17.8893C49.0406 18.4893 49.3206 18.7893 49.8806 18.7893H52.7606V21.9093H48.5606Z" fill="#101828"/>
<path d="M61.2223 22.3293C59.2823 22.3293 57.6923 21.9093 56.4523 21.0693C55.2123 20.2293 54.4623 19.0293 54.2023 17.4693L57.6823 16.5693C57.8223 17.2693 58.0523 17.8193 58.3723 18.2193C58.7123 18.6193 59.1223 18.9093 59.6023 19.0893C60.1023 19.2493 60.6423 19.3293 61.2223 19.3293C62.1023 19.3293 62.7523 19.1793 63.1723 18.8793C63.5923 18.5593 63.8023 18.1693 63.8023 17.7093C63.8023 17.2493 63.6023 16.8993 63.2023 16.6593C62.8023 16.3993 62.1623 16.1893 61.2823 16.0293L60.4423 15.8793C59.4023 15.6793 58.4523 15.4093 57.5923 15.0693C56.7323 14.7093 56.0423 14.2193 55.5223 13.5993C55.0023 12.9793 54.7423 12.1793 54.7423 11.1993C54.7423 9.71926 55.2823 8.58926 56.3623 7.80926C57.4423 7.00926 58.8623 6.60926 60.6223 6.60926C62.2823 6.60926 63.6623 6.97926 64.7623 7.71926C65.8623 8.45926 66.5823 9.42926 66.9223 10.6293L63.4123 11.7093C63.2523 10.9493 62.9223 10.4093 62.4223 10.0893C61.9423 9.76926 61.3423 9.60926 60.6223 9.60926C59.9023 9.60926 59.3523 9.73926 58.9723 9.99926C58.5923 10.2393 58.4023 10.5793 58.4023 11.0193C58.4023 11.4993 58.6023 11.8593 59.0023 12.0993C59.4023 12.3193 59.9423 12.4893 60.6223 12.6093L61.4623 12.7593C62.5823 12.9593 63.5923 13.2293 64.4923 13.5693C65.4123 13.8893 66.1323 14.3593 66.6523 14.9793C67.1923 15.5793 67.4623 16.3993 67.4623 17.4393C67.4623 18.9993 66.8923 20.2093 65.7523 21.0693C64.6323 21.9093 63.1223 22.3293 61.2223 22.3293Z" fill="#101828"/>
<path d="M69.2747 21.9093V0.909258H73.0547V8.85926H73.5947C73.7547 8.53926 74.0047 8.21926 74.3447 7.89926C74.6847 7.57926 75.1347 7.31926 75.6947 7.11926C76.2747 6.89926 77.0047 6.78926 77.8847 6.78926C79.0447 6.78926 80.0547 7.05926 80.9147 7.59926C81.7947 8.11926 82.4747 8.84926 82.9547 9.78926C83.4347 10.7093 83.6747 11.7893 83.6747 13.0293V21.9093H79.8947V13.3293C79.8947 12.2093 79.6147 11.3693 79.0547 10.8093C78.5147 10.2493 77.7347 9.96926 76.7147 9.96926C75.5547 9.96926 74.6547 10.3593 74.0147 11.1393C73.3747 11.8993 73.0547 12.9693 73.0547 14.3493V21.9093H69.2747Z" fill="#101828"/>
<path d="M86.261 21.9093V7.02926H90.041V21.9093H86.261ZM88.151 5.28926C87.471 5.28926 86.891 5.06926 86.411 4.62926C85.951 4.18926 85.721 3.60926 85.721 2.88926C85.721 2.16926 85.951 1.58926 86.411 1.14926C86.891 0.709258 87.471 0.489258 88.151 0.489258C88.851 0.489258 89.431 0.709258 89.891 1.14926C90.351 1.58926 90.581 2.16926 90.581 2.88926C90.581 3.60926 90.351 4.18926 89.891 4.62926C89.431 5.06926 88.851 5.28926 88.151 5.28926Z" fill="#101828"/>
<path d="M95.1898 21.9093V10.1493H91.4098V7.02926H95.1898V4.26926C95.1898 3.24926 95.4898 2.43926 96.0898 1.83926C96.7098 1.21926 97.5098 0.909258 98.4898 0.909258H102.39V4.02926H99.8098C99.2498 4.02926 98.9698 4.32926 98.9698 4.92926V7.02926H102.87V10.1493H98.9698V21.9093H95.1898Z" fill="#101828"/>
<path d="M109.703 21.9093C108.723 21.9093 107.923 21.6093 107.303 21.0093C106.703 20.3893 106.403 19.5693 106.403 18.5493V10.1493H102.683V7.02926H106.403V2.40926H110.183V7.02926H114.263V10.1493H110.183V17.8893C110.183 18.4893 110.463 18.7893 111.023 18.7893H113.903V21.9093H109.703Z" fill="#101828"/>
</g>
</svg>
