<svg width="117" height="30" viewBox="0 0 117 30" fill="none" xmlns="http://www.w3.org/2000/svg">
<g id="Logotype">
<path d="M5.29083 18.3452H11.3388V21.9092H0.673828V2.95523H5.29083V18.3452Z" fill="#101828"/>
<path d="M15.593 5.27723C14.783 5.27723 14.117 5.04323 13.595 4.57523C13.091 4.08923 12.839 3.49523 12.839 2.79323C12.839 2.07323 13.091 1.47923 13.595 1.01123C14.117 0.525227 14.783 0.282227 15.593 0.282227C16.385 0.282227 17.033 0.525227 17.537 1.01123C18.059 1.47923 18.32 2.07323 18.32 2.79323C18.32 3.49523 18.059 4.08923 17.537 4.57523C17.033 5.04323 16.385 5.27723 15.593 5.27723ZM17.888 6.84323V21.9092H13.271V6.84323H17.888Z" fill="#101828"/>
<path d="M26.6879 6.62723C27.7499 6.62723 28.6769 6.84323 29.4689 7.27523C30.2789 7.70723 30.8999 8.27423 31.3319 8.97623V6.84323H35.9489V21.8822C35.9489 23.2682 35.6699 24.5192 35.1119 25.6352C34.5719 26.7692 33.7349 27.6692 32.6009 28.3352C31.4849 29.0012 30.0899 29.3342 28.4159 29.3342C26.1839 29.3342 24.3749 28.8032 22.9889 27.7412C21.6029 26.6972 20.8109 25.2752 20.6129 23.4752H25.1759C25.3199 24.0512 25.6619 24.5012 26.2019 24.8252C26.7419 25.1672 27.4079 25.3382 28.1999 25.3382C29.1539 25.3382 29.9099 25.0592 30.4679 24.5012C31.0439 23.9612 31.3319 23.0882 31.3319 21.8822V19.7492C30.8819 20.4512 30.2609 21.0272 29.4689 21.4772C28.6769 21.9092 27.7499 22.1252 26.6879 22.1252C25.4459 22.1252 24.3209 21.8102 23.3129 21.1802C22.3049 20.5322 21.5039 19.6232 20.9099 18.4532C20.3339 17.2652 20.0459 15.8972 20.0459 14.3492C20.0459 12.8012 20.3339 11.4422 20.9099 10.2722C21.5039 9.10223 22.3049 8.20223 23.3129 7.57223C24.3209 6.94223 25.4459 6.62723 26.6879 6.62723ZM31.3319 14.3762C31.3319 13.2242 31.0079 12.3152 30.3599 11.6492C29.7299 10.9832 28.9559 10.6502 28.0379 10.6502C27.1199 10.6502 26.3369 10.9832 25.6889 11.6492C25.0589 12.2972 24.7439 13.1972 24.7439 14.3492C24.7439 15.5012 25.0589 16.4192 25.6889 17.1032C26.3369 17.7692 27.1199 18.1022 28.0379 18.1022C28.9559 18.1022 29.7299 17.7692 30.3599 17.1032C31.0079 16.4372 31.3319 15.5282 31.3319 14.3762Z" fill="#101828"/>
<path d="M48.2801 6.68123C50.0081 6.68123 51.3941 7.25723 52.4381 8.40923C53.4821 9.54323 54.0041 11.1092 54.0041 13.1072V21.9092H49.4141V13.7282C49.4141 12.7202 49.1531 11.9372 48.6311 11.3792C48.1091 10.8212 47.4071 10.5422 46.5251 10.5422C45.6431 10.5422 44.9411 10.8212 44.4191 11.3792C43.8971 11.9372 43.6361 12.7202 43.6361 13.7282V21.9092H39.0191V1.92923H43.6361V8.86823C44.1041 8.20223 44.7431 7.67123 45.5531 7.27523C46.3631 6.87923 47.2721 6.68123 48.2801 6.68123Z" fill="#101828"/>
<path d="M65.3395 17.9942V21.9092H62.9905C61.3165 21.9092 60.0115 21.5042 59.0755 20.6942C58.1395 19.8662 57.6715 18.5252 57.6715 16.6712V10.6772H55.8355V6.84323H57.6715V3.17123H62.2885V6.84323H65.3125V10.6772H62.2885V16.7252C62.2885 17.1752 62.3965 17.4992 62.6125 17.6972C62.8285 17.8952 63.1885 17.9942 63.6925 17.9942H65.3395Z" fill="#101828"/>
<path d="M72.2582 8.97623C72.6902 8.27423 73.3112 7.70723 74.1212 7.27523C74.9312 6.84323 75.8582 6.62723 76.9022 6.62723C78.1442 6.62723 79.2692 6.94223 80.2772 7.57223C81.2852 8.20223 82.0772 9.10223 82.6532 10.2722C83.2472 11.4422 83.5442 12.8012 83.5442 14.3492C83.5442 15.8972 83.2472 17.2652 82.6532 18.4532C82.0772 19.6232 81.2852 20.5322 80.2772 21.1802C79.2692 21.8102 78.1442 22.1252 76.9022 22.1252C75.8402 22.1252 74.9132 21.9182 74.1212 21.5042C73.3292 21.0722 72.7082 20.5052 72.2582 19.8032V21.9092H67.6412V1.92923H72.2582V8.97623ZM78.8462 14.3492C78.8462 13.1972 78.5222 12.2972 77.8742 11.6492C77.2442 10.9832 76.4612 10.6502 75.5252 10.6502C74.6072 10.6502 73.8242 10.9832 73.1762 11.6492C72.5462 12.3152 72.2312 13.2242 72.2312 14.3762C72.2312 15.5282 72.5462 16.4372 73.1762 17.1032C73.8242 17.7692 74.6072 18.1022 75.5252 18.1022C76.4432 18.1022 77.2262 17.7692 77.8742 17.1032C78.5222 16.4192 78.8462 15.5012 78.8462 14.3492Z" fill="#101828"/>
<path d="M92.5544 22.1252C91.0784 22.1252 89.7464 21.8102 88.5584 21.1802C87.3884 20.5502 86.4614 19.6502 85.7774 18.4802C85.1114 17.3102 84.7784 15.9422 84.7784 14.3762C84.7784 12.8282 85.1204 11.4692 85.8044 10.2992C86.4884 9.11123 87.4244 8.20223 88.6124 7.57223C89.8004 6.94223 91.1324 6.62723 92.6084 6.62723C94.0844 6.62723 95.4164 6.94223 96.6044 7.57223C97.7924 8.20223 98.7284 9.11123 99.4124 10.2992C100.096 11.4692 100.438 12.8282 100.438 14.3762C100.438 15.9242 100.087 17.2922 99.3854 18.4802C98.7014 19.6502 97.7564 20.5502 96.5504 21.1802C95.3624 21.8102 94.0304 22.1252 92.5544 22.1252ZM92.5544 18.1292C93.4364 18.1292 94.1834 17.8052 94.7954 17.1572C95.4254 16.5092 95.7404 15.5822 95.7404 14.3762C95.7404 13.1702 95.4344 12.2432 94.8224 11.5952C94.2284 10.9472 93.4904 10.6232 92.6084 10.6232C91.7084 10.6232 90.9614 10.9472 90.3674 11.5952C89.7734 12.2252 89.4764 13.1522 89.4764 14.3762C89.4764 15.5822 89.7644 16.5092 90.3404 17.1572C90.9344 17.8052 91.6724 18.1292 92.5544 18.1292Z" fill="#101828"/>
<path d="M111.528 21.9092L108.639 17.7242L106.209 21.9092H101.214L106.182 14.2142L101.079 6.84323H106.263L109.152 11.0012L111.582 6.84323H116.577L111.528 14.4302L116.712 21.9092H111.528Z" fill="#101828"/>
</g>
</svg>
