<svg width="44" height="44" viewBox="0 0 44 44" fill="none" xmlns="http://www.w3.org/2000/svg">
<g id="Logomark">
<path id="Shape" d="M36.3068 9.16332C35.8745 8.7311 35.4423 8.29888 35.0101 7.86666C33.7134 6.48356 32.3303 5.10046 30.6015 4.23602C28.6132 3.19869 26.4522 3.45801 24.2911 3.45801C21.0062 3.45801 12.794 3.45801 7.95312 3.45801L11.238 7.86666C17.2026 7.86666 26.5386 7.86666 30.8608 7.86666C32.6761 7.86666 34.2321 8.21244 35.7017 9.16332C35.961 9.24977 36.2203 9.24977 36.3068 9.16332Z" fill="#66C61C"/>
<path id="Shape_2" d="M39.9367 16.2517C39.5045 15.8195 39.0723 15.3873 38.6401 14.955C37.3434 13.5719 35.9603 12.1888 34.2315 11.3244C32.2432 10.2871 30.0821 10.5464 27.921 10.5464C25.0684 10.5464 18.2393 10.5464 13.3984 10.5464L16.6833 14.955C22.5615 14.955 30.6008 14.955 34.5772 14.955C36.3925 14.955 37.9485 15.3008 39.4181 16.2517C39.591 16.3381 39.7639 16.3381 39.9367 16.2517Z" fill="#4CA30D"/>
<path id="Shape_3" d="M44 23.1667C43.5677 22.7345 43.1355 22.3023 42.7033 21.8701C41.4066 20.487 40.0235 19.1039 38.2947 18.2394C36.3065 17.2021 34.1453 17.4614 31.9842 17.4614C29.3045 17.4614 23.4263 17.4614 18.6719 17.4614L21.9567 21.8701C27.662 21.8701 34.9234 21.8701 38.554 21.8701C40.3693 21.8701 41.9253 22.2159 43.3949 23.1667C43.6542 23.2532 43.8271 23.3396 44 23.1667Z" fill="#3B7C0F"/>
<path id="Shape_4" d="M7.60742 34.8368C8.03964 35.269 8.47186 35.7012 8.90408 36.1335C10.2007 37.5166 11.5838 38.8997 13.3127 39.7641C15.3009 40.8014 17.462 40.5421 19.6231 40.5421H35.9611L32.6762 36.1335C26.7115 36.1335 17.3756 36.1335 13.0534 36.1335C11.2381 36.1335 9.68208 35.7877 8.21253 34.8368C7.9532 34.7504 7.78031 34.7504 7.60742 34.8368Z" fill="#66C61C"/>
<path id="Shape_5" d="M3.97656 27.7489C4.40878 28.1811 4.841 28.6134 5.27322 29.0456C6.56988 30.4287 7.95298 31.8118 9.68186 32.6762C11.6701 33.7136 13.8312 33.4542 15.9923 33.4542H30.5149L27.23 29.0456C21.3518 29.0456 13.3125 29.0456 9.33609 29.0456C7.52076 29.0456 5.96477 28.6998 4.49522 27.7489C4.32233 27.6625 4.14945 27.6625 3.97656 27.7489Z" fill="#4CA30D"/>
<path id="Shape_6" d="M0 20.7465C0.43222 21.1787 0.86444 21.6109 1.29666 22.0431C2.59332 23.4262 3.97643 24.8094 5.70531 25.6738C7.69352 26.7111 9.85461 26.4518 12.0157 26.4518H25.3281L22.0432 22.0431C16.3379 22.0431 9.07662 22.0431 5.44598 22.0431C3.63065 22.0431 2.07465 21.6974 0.605106 20.7465C0.345773 20.66 0.172888 20.66 0 20.7465Z" fill="#3B7C0F"/>
</g>
</svg>
