<svg width="145" height="21" viewBox="0 0 145 21" fill="none" xmlns="http://www.w3.org/2000/svg">
<g id="Logotype">
<path d="M0.931641 0.0078125V19.9998H5.32764V11.7398H13.6996V8.32381H5.32764V3.70381H14.9876V0.0078125H0.931641Z" fill="#101828"/>
<path d="M26.0133 11.2078H19.5453C19.564 10.9278 19.62 10.6105 19.7133 10.2558C19.8253 9.90115 20.0026 9.56515 20.2453 9.24781C20.5066 8.93048 20.8426 8.66915 21.2533 8.46381C21.6826 8.23981 22.2146 8.12781 22.8493 8.12781C23.82 8.12781 24.5386 8.38915 25.0053 8.91181C25.4906 9.43448 25.8266 10.1998 26.0133 11.2078ZM19.5453 13.7278H29.9893C30.064 12.6078 29.9706 11.5345 29.7093 10.5078C29.448 9.48115 29.0186 8.56648 28.4213 7.76381C27.8426 6.96115 27.096 6.32648 26.1813 5.85981C25.2666 5.37448 24.1933 5.13181 22.9613 5.13181C21.86 5.13181 20.852 5.32781 19.9373 5.71981C19.0413 6.11181 18.2666 6.65315 17.6133 7.34381C16.96 8.01581 16.456 8.81848 16.1013 9.75181C15.7466 10.6851 15.5693 11.6931 15.5693 12.7758C15.5693 13.8958 15.7373 14.9225 16.0733 15.8558C16.428 16.7891 16.9226 17.5918 17.5573 18.2638C18.192 18.9358 18.9666 19.4585 19.8813 19.8318C20.796 20.1865 21.8226 20.3638 22.9613 20.3638C24.604 20.3638 26.004 19.9905 27.1613 19.2438C28.3186 18.4971 29.1773 17.2558 29.7373 15.5198H26.2373C26.1066 15.9678 25.752 16.3971 25.1733 16.8078C24.5946 17.1998 23.904 17.3958 23.1013 17.3958C21.9813 17.3958 21.1226 17.1065 20.5253 16.5278C19.928 15.9491 19.6013 15.0158 19.5453 13.7278Z" fill="#101828"/>
<path d="M31.3394 9.97581C31.3954 9.04248 31.6288 8.26781 32.0394 7.65181C32.4501 7.03581 32.9728 6.54115 33.6074 6.16781C34.2421 5.79448 34.9514 5.53315 35.7354 5.38381C36.5381 5.21581 37.3408 5.13181 38.1434 5.13181C38.8714 5.13181 39.6088 5.18781 40.3554 5.29981C41.1021 5.39315 41.7834 5.58915 42.3994 5.88781C43.0154 6.18648 43.5194 6.60648 43.9114 7.14781C44.3034 7.67048 44.4994 8.37048 44.4994 9.24781V16.7798C44.4994 17.4331 44.5368 18.0585 44.6114 18.6558C44.6861 19.2531 44.8168 19.7011 45.0034 19.9998H40.9714C40.8968 19.7758 40.8314 19.5518 40.7754 19.3278C40.7381 19.0851 40.7101 18.8425 40.6914 18.5998C40.0568 19.2531 39.3101 19.7105 38.4514 19.9718C37.5928 20.2331 36.7154 20.3638 35.8194 20.3638C35.1288 20.3638 34.4848 20.2798 33.8874 20.1118C33.2901 19.9438 32.7674 19.6825 32.3194 19.3278C31.8714 18.9731 31.5168 18.5251 31.2554 17.9838C31.0128 17.4425 30.8914 16.7985 30.8914 16.0518C30.8914 15.2305 31.0314 14.5585 31.3114 14.0358C31.6101 13.4945 31.9834 13.0651 32.4314 12.7478C32.8981 12.4305 33.4208 12.1971 33.9994 12.0478C34.5968 11.8798 35.1941 11.7491 35.7914 11.6558C36.3888 11.5625 36.9768 11.4878 37.5554 11.4318C38.1341 11.3758 38.6474 11.2918 39.0954 11.1798C39.5434 11.0678 39.8981 10.9091 40.1594 10.7038C40.4208 10.4798 40.5421 10.1625 40.5234 9.75181C40.5234 9.32248 40.4488 8.98648 40.2994 8.74381C40.1688 8.48248 39.9821 8.28648 39.7394 8.15581C39.5154 8.00648 39.2448 7.91315 38.9274 7.87581C38.6288 7.81981 38.3021 7.79181 37.9474 7.79181C37.1634 7.79181 36.5474 7.95981 36.0994 8.29581C35.6514 8.63181 35.3901 9.19181 35.3154 9.97581H31.3394ZM40.5234 12.9158C40.3554 13.0651 40.1408 13.1865 39.8794 13.2798C39.6368 13.3545 39.3661 13.4198 39.0674 13.4758C38.7874 13.5318 38.4888 13.5785 38.1714 13.6158C37.8541 13.6531 37.5368 13.6998 37.2194 13.7558C36.9208 13.8118 36.6221 13.8865 36.3234 13.9798C36.0434 14.0731 35.7914 14.2038 35.5674 14.3718C35.3621 14.5211 35.1941 14.7171 35.0634 14.9598C34.9328 15.2025 34.8674 15.5105 34.8674 15.8838C34.8674 16.2385 34.9328 16.5371 35.0634 16.7798C35.1941 17.0225 35.3714 17.2185 35.5954 17.3678C35.8194 17.4985 36.0808 17.5918 36.3794 17.6478C36.6781 17.7038 36.9861 17.7318 37.3034 17.7318C38.0874 17.7318 38.6941 17.6011 39.1234 17.3398C39.5528 17.0785 39.8701 16.7705 40.0754 16.4158C40.2808 16.0425 40.4021 15.6691 40.4394 15.2958C40.4954 14.9225 40.5234 14.6238 40.5234 14.3998V12.9158Z" fill="#101828"/>
<path d="M51.7855 5.52381V1.18381H47.8095V5.52381H45.4015V8.18381H47.8095V16.7238C47.8095 17.4518 47.9309 18.0398 48.1735 18.4878C48.4162 18.9358 48.7429 19.2811 49.1535 19.5238C49.5829 19.7665 50.0682 19.9251 50.6095 19.9998C51.1695 20.0931 51.7575 20.1398 52.3735 20.1398C52.7655 20.1398 53.1669 20.1305 53.5775 20.1118C53.9882 20.0931 54.3615 20.0558 54.6975 19.9998V16.9198C54.5109 16.9571 54.3149 16.9851 54.1095 17.0038C53.9042 17.0225 53.6895 17.0318 53.4655 17.0318C52.7935 17.0318 52.3455 16.9198 52.1215 16.6958C51.8975 16.4718 51.7855 16.0238 51.7855 15.3518V8.18381H54.6975V5.52381H51.7855Z" fill="#101828"/>
<path d="M55.7493 0.0078125V19.9998H59.7253V12.4118C59.7253 10.9371 59.968 9.88248 60.4533 9.24781C60.9386 8.59448 61.7226 8.26781 62.8053 8.26781C63.7573 8.26781 64.42 8.56648 64.7933 9.16381C65.1666 9.74248 65.3533 10.6291 65.3533 11.8238V19.9998H69.3293V11.0958C69.3293 10.1998 69.2453 9.38781 69.0773 8.65981C68.928 7.91315 68.6573 7.28781 68.2653 6.78381C67.8733 6.26115 67.332 5.85981 66.6413 5.57981C65.9693 5.28115 65.1013 5.13181 64.0373 5.13181C63.2906 5.13181 62.5253 5.32781 61.7413 5.71981C60.9573 6.09315 60.3133 6.69981 59.8093 7.53981H59.7253V0.0078125H55.7493Z" fill="#101828"/>
<path d="M81.251 11.2078H74.783C74.8016 10.9278 74.8576 10.6105 74.951 10.2558C75.063 9.90115 75.2403 9.56515 75.483 9.24781C75.7443 8.93048 76.0803 8.66915 76.491 8.46381C76.9203 8.23981 77.4523 8.12781 78.087 8.12781C79.0576 8.12781 79.7763 8.38915 80.243 8.91181C80.7283 9.43448 81.0643 10.1998 81.251 11.2078ZM74.783 13.7278H85.227C85.3016 12.6078 85.2083 11.5345 84.947 10.5078C84.6856 9.48115 84.2563 8.56648 83.659 7.76381C83.0803 6.96115 82.3336 6.32648 81.419 5.85981C80.5043 5.37448 79.431 5.13181 78.199 5.13181C77.0976 5.13181 76.0896 5.32781 75.175 5.71981C74.279 6.11181 73.5043 6.65315 72.851 7.34381C72.1976 8.01581 71.6936 8.81848 71.339 9.75181C70.9843 10.6851 70.807 11.6931 70.807 12.7758C70.807 13.8958 70.975 14.9225 71.311 15.8558C71.6656 16.7891 72.1603 17.5918 72.795 18.2638C73.4296 18.9358 74.2043 19.4585 75.119 19.8318C76.0336 20.1865 77.0603 20.3638 78.199 20.3638C79.8416 20.3638 81.2416 19.9905 82.399 19.2438C83.5563 18.4971 84.415 17.2558 84.975 15.5198H81.475C81.3443 15.9678 80.9896 16.3971 80.411 16.8078C79.8323 17.1998 79.1416 17.3958 78.339 17.3958C77.219 17.3958 76.3603 17.1065 75.763 16.5278C75.1656 15.9491 74.839 15.0158 74.783 13.7278Z" fill="#101828"/>
<path d="M86.7451 5.52381V19.9998H90.7211V13.4758C90.7211 12.8225 90.7864 12.2158 90.9171 11.6558C91.0477 11.0958 91.2624 10.6105 91.5611 10.1998C91.8784 9.77048 92.2891 9.43448 92.7931 9.19181C93.2971 8.94915 93.9131 8.82781 94.6411 8.82781C94.8837 8.82781 95.1357 8.84648 95.3971 8.88381C95.6584 8.90248 95.8824 8.93048 96.0691 8.96781V5.27181C95.7517 5.17848 95.4624 5.13181 95.2011 5.13181C94.6971 5.13181 94.2117 5.20648 93.7451 5.35581C93.2784 5.50515 92.8397 5.71981 92.4291 5.99981C92.0184 6.26115 91.6544 6.58781 91.3371 6.97981C91.0197 7.35315 90.7677 7.76381 90.5811 8.21181H90.5251V5.52381H86.7451Z" fill="#101828"/>
<path d="M101.604 16.3038V3.70381H104.74C105.823 3.70381 106.728 3.86248 107.456 4.17981C108.203 4.47848 108.8 4.91715 109.248 5.49581C109.696 6.07448 110.013 6.77448 110.2 7.59581C110.405 8.39848 110.508 9.30381 110.508 10.3118C110.508 11.4131 110.368 12.3465 110.088 13.1118C109.808 13.8771 109.435 14.5025 108.968 14.9878C108.501 15.4545 107.969 15.7905 107.372 15.9958C106.775 16.2011 106.159 16.3038 105.524 16.3038H101.604ZM97.2079 0.0078125V19.9998H105.832C107.363 19.9998 108.688 19.7478 109.808 19.2438C110.947 18.7211 111.889 18.0118 112.636 17.1158C113.401 16.2198 113.971 15.1558 114.344 13.9238C114.717 12.6918 114.904 11.3478 114.904 9.89181C114.904 8.23048 114.671 6.78381 114.204 5.55181C113.756 4.31981 113.121 3.29315 112.3 2.47181C111.497 1.65048 110.536 1.03448 109.416 0.623813C108.315 0.213146 107.12 0.0078125 105.832 0.0078125H97.2079Z" fill="#101828"/>
<path d="M126.446 11.2078H119.978C119.996 10.9278 120.052 10.6105 120.146 10.2558C120.258 9.90115 120.435 9.56515 120.678 9.24781C120.939 8.93048 121.275 8.66915 121.686 8.46381C122.115 8.23981 122.647 8.12781 123.282 8.12781C124.252 8.12781 124.971 8.38915 125.438 8.91181C125.923 9.43448 126.259 10.1998 126.446 11.2078ZM119.978 13.7278H130.422C130.496 12.6078 130.403 11.5345 130.142 10.5078C129.88 9.48115 129.451 8.56648 128.854 7.76381C128.275 6.96115 127.528 6.32648 126.614 5.85981C125.699 5.37448 124.626 5.13181 123.394 5.13181C122.292 5.13181 121.284 5.32781 120.37 5.71981C119.474 6.11181 118.699 6.65315 118.046 7.34381C117.392 8.01581 116.888 8.81848 116.534 9.75181C116.179 10.6851 116.002 11.6931 116.002 12.7758C116.002 13.8958 116.17 14.9225 116.506 15.8558C116.86 16.7891 117.355 17.5918 117.99 18.2638C118.624 18.9358 119.399 19.4585 120.314 19.8318C121.228 20.1865 122.255 20.3638 123.394 20.3638C125.036 20.3638 126.436 19.9905 127.594 19.2438C128.751 18.4971 129.61 17.2558 130.17 15.5198H126.67C126.539 15.9678 126.184 16.3971 125.606 16.8078C125.027 17.1998 124.336 17.3958 123.534 17.3958C122.414 17.3958 121.555 17.1065 120.958 16.5278C120.36 15.9491 120.034 15.0158 119.978 13.7278Z" fill="#101828"/>
<path d="M139.948 19.9998L144.848 5.52381H140.9L137.848 15.4078H137.792L134.74 5.52381H130.568L135.524 19.9998H139.948Z" fill="#101828"/>
</g>
</svg>
