<svg width="101" height="32" viewBox="0 0 101 32" fill="none" xmlns="http://www.w3.org/2000/svg">
<g id="Logotype">
<g id="Vector">
<path d="M10.003 8.45459H12.638V17.9574C12.638 18.9991 12.3917 19.9153 11.8993 20.706C11.4116 21.4967 10.7251 22.1146 9.83967 22.5597C8.95425 23 7.91969 23.2202 6.73597 23.2202C5.54753 23.2202 4.51059 23 3.62518 22.5597C2.73976 22.1146 2.05321 21.4967 1.56552 20.706C1.07783 19.9153 0.833984 18.9991 0.833984 17.9574V8.45459H3.46893V17.7373C3.46893 18.3433 3.6015 18.8831 3.86665 19.3566C4.13654 19.8301 4.51533 20.2017 5.00302 20.4716C5.49071 20.7368 6.06836 20.8694 6.73597 20.8694C7.40359 20.8694 7.98124 20.7368 8.46893 20.4716C8.96135 20.2017 9.34014 19.8301 9.60529 19.3566C9.87044 18.8831 10.003 18.3433 10.003 17.7373V8.45459Z" fill="white"/>
<path d="M17.9593 16.608V23H15.3883V12.091H17.8457V13.9446H17.9735C18.2245 13.3339 18.6246 12.8485 19.1738 12.4887C19.7278 12.1288 20.412 11.9489 21.2264 11.9489C21.9792 11.9489 22.635 12.1099 23.1937 12.4319C23.7572 12.7538 24.1928 13.2202 24.5005 13.831C24.813 14.4418 24.9669 15.1828 24.9622 16.054V23H22.3912V16.4517C22.3912 15.7226 22.2018 15.152 21.823 14.7401C21.4489 14.3282 20.9305 14.1222 20.2676 14.1222C19.8178 14.1222 19.4177 14.2216 19.0673 14.4205C18.7217 14.6146 18.4494 14.8964 18.2505 15.2657C18.0564 15.635 17.9593 16.0824 17.9593 16.608Z" fill="white"/>
<path d="M33.0233 12.091V14.0796H26.752V12.091H33.0233ZM28.3002 9.47732H30.8713V19.7188C30.8713 20.0644 30.9234 20.3296 31.0275 20.5142C31.1364 20.6942 31.2785 20.8173 31.4537 20.8836C31.6288 20.9499 31.823 20.983 32.036 20.983C32.197 20.983 32.3438 20.9712 32.4764 20.9475C32.6137 20.9238 32.7179 20.9025 32.7889 20.8836L33.2221 22.8935C33.0848 22.9409 32.8883 22.9929 32.6326 23.0498C32.3817 23.1066 32.0739 23.1397 31.7093 23.1492C31.0654 23.1681 30.4854 23.0711 29.9693 22.858C29.4532 22.6402 29.0436 22.304 28.7406 21.8495C28.4423 21.3949 28.2955 20.8267 28.3002 20.1449V9.47732Z" fill="white"/>
<path d="M35.1735 23V12.091H37.7445V23H35.1735ZM36.4661 10.5427C36.0589 10.5427 35.7085 10.4077 35.415 10.1378C35.1214 9.86321 34.9746 9.53413 34.9746 9.15061C34.9746 8.76235 35.1214 8.43328 35.415 8.1634C35.7085 7.88878 36.0589 7.75146 36.4661 7.75146C36.878 7.75146 37.2284 7.88878 37.5172 8.1634C37.8108 8.43328 37.9576 8.76235 37.9576 9.15061C37.9576 9.53413 37.8108 9.86321 37.5172 10.1378C37.2284 10.4077 36.878 10.5427 36.4661 10.5427Z" fill="white"/>
<path d="M45.8358 12.091V14.0796H39.5645V12.091H45.8358ZM41.1128 9.47732H43.6838V19.7188C43.6838 20.0644 43.7359 20.3296 43.84 20.5142C43.9489 20.6942 44.091 20.8173 44.2662 20.8836C44.4413 20.9499 44.6355 20.983 44.8485 20.983C45.0095 20.983 45.1563 20.9712 45.2889 20.9475C45.4262 20.9238 45.5304 20.9025 45.6014 20.8836L46.0346 22.8935C45.8973 22.9409 45.7008 22.9929 45.4451 23.0498C45.1942 23.1066 44.8864 23.1397 44.5218 23.1492C43.8779 23.1681 43.2979 23.0711 42.7818 22.858C42.2657 22.6402 41.8561 22.304 41.5531 21.8495C41.2548 21.3949 41.108 20.8267 41.1128 20.1449V9.47732Z" fill="white"/>
<path d="M50.7914 8.45459V23H48.2203V8.45459H50.7914Z" fill="white"/>
<path d="M58.2647 23.2131C57.171 23.2131 56.2264 22.9858 55.4309 22.5313C54.6402 22.072 54.0318 21.4233 53.6056 20.5853C53.1795 19.7425 52.9664 18.7505 52.9664 17.6094C52.9664 16.4873 53.1795 15.5024 53.6056 14.6549C54.0365 13.8026 54.6378 13.1397 55.4096 12.6662C56.1814 12.188 57.0881 11.9489 58.1298 11.9489C58.8021 11.9489 59.4366 12.0578 60.0332 12.2756C60.6345 12.4887 61.1648 12.8201 61.6241 13.2699C62.0881 13.7197 62.4527 14.2927 62.7179 14.9887C62.983 15.68 63.1156 16.5038 63.1156 17.4603V18.2486H54.1738V16.5157H60.6511C60.6464 16.0232 60.5398 15.5853 60.3315 15.2017C60.1232 14.8135 59.832 14.5081 59.4579 14.2856C59.0886 14.063 58.6577 13.9517 58.1653 13.9517C57.6397 13.9517 57.1781 14.0796 56.7804 14.3353C56.3826 14.5862 56.0725 14.9177 55.85 15.3296C55.6322 15.7368 55.5209 16.1842 55.5162 16.6719V18.1847C55.5162 18.8192 55.6322 19.3637 55.8642 19.8182C56.0962 20.268 56.4205 20.6137 56.8372 20.8552C57.2538 21.0919 57.7415 21.2103 58.3003 21.2103C58.6743 21.2103 59.0128 21.1582 59.3159 21.054C59.6189 20.9451 59.8817 20.7865 60.1042 20.5782C60.3268 20.3698 60.4949 20.1118 60.6085 19.804L63.0091 20.0739C62.8575 20.7084 62.5687 21.2624 62.1426 21.7358C61.7212 22.2046 61.1814 22.5692 60.5233 22.8296C59.8651 23.0853 59.1123 23.2131 58.2647 23.2131Z" fill="white"/>
<path d="M69.339 23.1918C68.4819 23.1918 67.7149 22.9716 67.0378 22.5313C66.3607 22.091 65.8257 21.4517 65.4327 20.6137C65.0397 19.7756 64.8432 18.7576 64.8432 17.5597C64.8432 16.3476 65.0421 15.3249 65.4398 14.4915C65.8423 13.6535 66.3844 13.0214 67.0662 12.5952C67.748 12.1643 68.508 11.9489 69.3461 11.9489C69.9853 11.9489 70.5108 12.0578 70.9228 12.2756C71.3347 12.4887 71.6614 12.7467 71.9029 13.0498C72.1443 13.3481 72.3314 13.6298 72.464 13.8949H72.5705V8.45459H75.1486V23H72.6202V21.2813H72.464C72.3314 21.5464 72.1396 21.8282 71.8887 22.1265C71.6377 22.42 71.3063 22.671 70.8943 22.8793C70.4824 23.0876 69.964 23.1918 69.339 23.1918ZM70.0563 21.0824C70.6008 21.0824 71.0648 20.9357 71.4483 20.6421C71.8318 20.3438 72.123 19.9295 72.3219 19.3992C72.5208 18.8689 72.6202 18.251 72.6202 17.5455C72.6202 16.84 72.5208 16.2268 72.3219 15.706C72.1278 15.1852 71.839 14.7803 71.4554 14.4915C71.0766 14.2027 70.6103 14.0583 70.0563 14.0583C69.4834 14.0583 69.0051 14.2074 68.6216 14.5057C68.2381 14.804 67.9493 15.216 67.7551 15.7415C67.561 16.2671 67.464 16.8684 67.464 17.5455C67.464 18.2273 67.561 18.8357 67.7551 19.3708C67.954 19.9011 68.2452 20.3201 68.6287 20.6279C69.017 20.9309 69.4928 21.0824 70.0563 21.0824Z" fill="white"/>
<path d="M92.1319 8.45459H94.7669V17.9574C94.7669 18.9991 94.5207 19.9153 94.0282 20.706C93.5405 21.4967 92.854 22.1146 91.9686 22.5597C91.0832 23 90.0486 23.2202 88.8649 23.2202C87.6764 23.2202 86.6395 23 85.7541 22.5597C84.8687 22.1146 84.1821 21.4967 83.6944 20.706C83.2067 19.9153 82.9629 18.9991 82.9629 17.9574V8.45459H85.5978V17.7373C85.5978 18.3433 85.7304 18.8831 85.9956 19.3566C86.2654 19.8301 86.6442 20.2017 87.1319 20.4716C87.6196 20.7368 88.1973 20.8694 88.8649 20.8694C89.5325 20.8694 90.1101 20.7368 90.5978 20.4716C91.0903 20.2017 91.469 19.8301 91.7342 19.3566C91.9993 18.8831 92.1319 18.3433 92.1319 17.7373V8.45459Z" fill="white"/>
<path d="M100.266 8.45459V23H97.6309V8.45459H100.266Z" fill="white"/>
</g>
</g>
</svg>
