<svg width="50" height="29" viewBox="0 0 50 29" fill="none" xmlns="http://www.w3.org/2000/svg">
<g id="Mastercard">
<path id="Left" fill-rule="evenodd" clip-rule="evenodd" d="M17.7211 18.6905C14.7282 18.5432 11.7953 17.8041 9.49333 16.4752C4.35692 13.51 4.30737 8.73097 9.38265 5.80101C14.4579 2.87105 22.7361 2.89966 27.8726 5.86491C30.1747 7.19391 31.4549 8.88726 31.7099 10.6152C34.7028 10.7625 37.6358 11.5016 39.9378 12.8305C45.0742 15.7957 45.1237 20.5747 40.0484 23.5047C34.9731 26.4347 26.6949 26.4061 21.5585 23.4408C19.2564 22.1118 17.9762 20.4185 17.7211 18.6905Z" fill="#ED0006"/>
<path id="Right" fill-rule="evenodd" clip-rule="evenodd" d="M17.7206 18.6908C21.4058 18.8721 25.1818 18.1562 27.9825 16.5393C30.7831 14.9226 32.0232 12.7428 31.7093 10.6154C34.7022 10.7627 37.6352 11.5018 39.9372 12.8307C45.0736 15.7959 45.1232 20.575 40.0479 23.5049C34.9726 26.4349 26.6944 26.4063 21.558 23.441C19.2559 22.112 17.9756 20.4187 17.7206 18.6908Z" fill="#F9A000"/>
<path id="Middle" fill-rule="evenodd" clip-rule="evenodd" d="M17.7206 18.6913C17.406 16.5635 18.6461 14.3832 21.4472 12.7662C24.2478 11.1493 28.0238 10.4334 31.709 10.6147C32.0236 12.7425 30.7835 14.9228 27.9824 16.5399C25.1818 18.1567 21.4058 18.8726 17.7206 18.6913Z" fill="#FF5E00"/>
</g>
</svg>
