<svg width="46" height="27" viewBox="0 0 46 27" fill="none" xmlns="http://www.w3.org/2000/svg">
<g id="PayPass icon" clip-path="url(#clip0_7988_47451)">
<path id="Vector" d="M39.2991 10.3666C37.8828 13.4181 35.1001 16.2005 31.2307 18.4343C27.3613 20.6681 22.5415 22.2746 17.2558 23.0922M32.0248 8.9668C30.9201 11.3469 28.7496 13.5172 25.7315 15.2596C22.7133 17.002 18.9539 18.255 14.831 18.8928M25.1694 7.57971C24.3505 9.31233 22.7582 10.8948 20.5526 12.1681C18.3471 13.4413 15.6059 14.3606 12.6047 14.8333M18.1375 6.29442C17.7338 7.43549 16.776 8.46981 15.3731 9.27971C13.9702 10.0896 12.1785 10.6425 10.202 10.8756" stroke="white" stroke-width="3.05435" stroke-linecap="round"/>
</g>
<defs>
<clipPath id="clip0_7988_47451">
<rect width="23.756" height="28.5072" fill="white" transform="matrix(0.866044 0.499967 -0.866044 0.499967 25.0449 0.610107)"/>
</clipPath>
</defs>
</svg>
