<svg width="44" height="45" viewBox="0 0 44 45" fill="none" xmlns="http://www.w3.org/2000/svg">
<g id="Logomark">
<circle id="Shape" cx="22" cy="22.25" r="20.5" stroke="#6927DA" stroke-width="3"/>
<path id="Shape_2" d="M30.131 30.3819C25.9917 34.5213 21.3021 37.2235 17.1258 38.2975C12.9117 39.3811 9.51504 38.7573 7.50363 36.7459C5.49222 34.7345 4.86844 31.3379 5.95206 27.1238C7.02598 22.9474 9.7282 18.2579 13.8676 14.1185C18.007 9.97908 22.6965 7.27686 26.8729 6.20294C31.087 5.11932 34.4836 5.74311 36.495 7.75451C38.5064 9.76592 39.1302 13.1625 38.0466 17.3766C36.9727 21.553 34.2704 26.2425 30.131 30.3819Z" stroke="#6927DA" stroke-width="3"/>
<path id="Shape_3" d="M30.1324 14.1185C34.2718 18.2579 36.974 22.9474 38.0479 27.1238C39.1316 31.3378 38.5078 34.7345 36.4964 36.7459C34.485 38.7573 31.0883 39.3811 26.8743 38.2975C22.6979 37.2235 18.0084 34.5213 13.869 30.3819C9.72957 26.2425 7.02735 21.553 5.95343 17.3766C4.86981 13.1625 5.49359 9.76591 7.505 7.7545C9.51641 5.7431 12.913 5.11931 17.1271 6.20293C21.3035 7.27685 25.993 9.97907 30.1324 14.1185Z" stroke="#6927DA" stroke-width="3"/>
</g>
</svg>
