<svg width="112" height="29" viewBox="0 0 112 29" fill="none" xmlns="http://www.w3.org/2000/svg">
<g id="Logotype">
<path d="M8.8507 22.2401C13.5607 22.2401 16.7407 19.7801 16.7407 15.8501C16.7407 7.54006 5.7007 11.0801 5.7007 6.70006C5.7007 5.47006 6.8107 4.63006 8.5807 4.63006C10.5907 4.63006 11.8507 5.71006 12.0007 7.36006H16.2907C16.1707 3.37006 13.1107 0.76006 8.5807 0.76006C4.3207 0.76006 1.3207 3.22006 1.3207 6.70006C1.3207 14.9501 12.2107 11.8001 12.2107 15.9101C12.2107 17.5001 10.8607 18.3401 8.8507 18.3401C6.6307 18.3401 5.2207 16.9901 5.0407 14.8601H0.720703C0.900703 19.3301 4.0807 22.2401 8.8507 22.2401Z" fill="#101828"/>
<path d="M17.7609 28.1201H21.9309V20.6501C22.7409 21.6701 24.2109 22.2401 25.9209 22.2401C30.2709 22.2401 33.2109 19.1501 33.2109 14.4401C33.2109 9.73006 30.5109 6.64006 26.2809 6.64006C24.3309 6.64006 22.8309 7.36006 21.9309 8.53006V6.88006H17.7609V28.1201ZM25.4109 18.6401C23.1609 18.6401 21.6909 16.9601 21.6909 14.4401C21.6909 11.8901 23.1609 10.2101 25.4109 10.2101C27.6009 10.2101 29.1009 11.8901 29.1009 14.4401C29.1009 16.9601 27.6009 18.6401 25.4109 18.6401Z" fill="#101828"/>
<path d="M34.2199 22.0001H38.3899V13.7201C38.3899 11.7701 39.6799 10.3601 41.5099 10.3601C43.2499 10.3601 44.4499 11.6801 44.4499 13.5101V22.0001H48.6199V12.5801C48.6199 9.10006 46.3999 6.64006 43.0099 6.64006C40.9099 6.64006 39.2599 7.51006 38.3899 8.98006V0.310059H34.2199V22.0001Z" fill="#101828"/>
<path d="M60.2852 16.8701C59.9552 18.1601 58.8452 18.8201 57.1652 18.8201C55.0652 18.8201 53.7152 17.5001 53.4152 15.3701H64.2752C64.3052 15.0401 64.3352 14.5901 64.3352 14.0201C64.3352 10.5701 62.2052 6.64006 56.8652 6.64006C51.7352 6.64006 49.3952 10.5701 49.3952 14.4101C49.3952 18.2201 52.0352 22.2401 57.1652 22.2401C60.8852 22.2401 63.7652 20.1401 64.3652 16.8701H60.2852ZM56.8652 9.70006C58.8752 9.70006 60.0452 11.0501 60.1652 12.7301H53.4752C53.8352 10.6301 54.9752 9.70006 56.8652 9.70006Z" fill="#101828"/>
<path d="M75.2716 10.3601V6.88006H73.1201C71.2901 6.88006 70.1501 7.51006 69.3401 9.40006V6.88006H65.1401V22.0001H69.3401V14.6501C69.3401 12.0701 70.2701 10.3601 72.3401 10.3601H75.2716Z" fill="#101828"/>
<path d="M89.6716 6.88006H85.4716V15.1601C85.4716 17.0801 84.1816 18.5201 82.3516 18.5201C80.6416 18.5201 79.4416 17.2001 79.4416 15.3701V6.88006H75.2716V16.3001C75.2716 19.7501 77.4916 22.2401 80.8816 22.2401C82.9516 22.2401 84.6316 21.3401 85.4716 19.9001V22.0001H89.6716V6.88006Z" fill="#101828"/>
<path d="M91.4719 22.0001H95.6419V0.310059H91.4719V22.0001Z" fill="#101828"/>
<path d="M107.547 16.8701C107.217 18.1601 106.107 18.8201 104.427 18.8201C102.327 18.8201 100.977 17.5001 100.677 15.3701H111.537C111.567 15.0401 111.597 14.5901 111.597 14.0201C111.597 10.5701 109.467 6.64006 104.127 6.64006C98.997 6.64006 96.657 10.5701 96.657 14.4101C96.657 18.2201 99.297 22.2401 104.427 22.2401C108.147 22.2401 111.027 20.1401 111.627 16.8701H107.547ZM104.127 9.70006C106.137 9.70006 107.307 11.0501 107.427 12.7301H100.737C101.097 10.6301 102.237 9.70006 104.127 9.70006Z" fill="#101828"/>
</g>
</svg>
